<?xml version="1.0" encoding="UTF-8" standalone="no" ?>
<!DOCTYPE svg PUBLIC "-//W3C//DTD SVG 1.1//EN" "http://www.w3.org/Graphics/SVG/1.1/DTD/svg11.dtd">
<svg xmlns="http://www.w3.org/2000/svg" xmlns:xlink="http://www.w3.org/1999/xlink" version="1.1" width="400" height="400" viewBox="0 0 400 400" xml:space="preserve">
<desc>Created with Fabric.js 5.3.0</desc>
<defs>
</defs>
<g transform="matrix(1.0912788821 0 0 1.0912788821 200 200)" id="Wre5WoMxgiUmVAmrjh0wJ"  >
<path style="stroke: none; stroke-width: 1; stroke-dasharray: none; stroke-linecap: butt; stroke-dashoffset: 0; stroke-linejoin: miter; stroke-miterlimit: 4; fill: rgb(255,255,255); fill-rule: nonzero; opacity: 1;"  transform=" translate(-199.6462164988, -200.5283792726)" d="M 284.9 101.53 Q 284.98 100.58 284.24 101.18 L 259.37 121.35 C 259.0550430292377 121.60802024476509 258.60421041383773 121.61629240284583 258.28 121.37 C 224.91 96.11 185.34 76.64 143.65 70.02 Q 142.22 69.8 143.56 69.24 C 179.23 54.25 219.45 53.64 255.25 68.93 C 351.38 110.01 372.71 235.91 295.32 306.42 C 291.27 310.1 287.83 311.68 282.58 311.11 C 238.79 306.37 202.78 274.81 177.85 240.78 C 177.71861862634202 240.59647566379277 177.74453995287018 240.34590284068713 177.91 240.2 L 207.56 214.59 Q 208.1 214.13 207.44 213.86 L 121.7 179.82 C 121.55485331064978 179.7622048453135 121.39084679403136 179.77708805077634 121.25847505510251 179.8600673498064 C 121.12610331617365 179.94304664883643 121.04123518277689 180.08417441800998 121.03 180.24 L 111.5 295.77 C 111.48751569873005 295.9174055636998 111.56403307216918 296.0580797506045 111.69456244479683 296.1276954160059 C 111.82509181742448 296.19731108140735 111.98454199728897 296.1824862562645 112.1 296.09 L 138.17 275.21 C 138.41765893789852 275.01520585414687 138.76337478980804 275.0110901892432 139.01 275.2 C 174.09 301.95 216.97 323.15 261.13 328.63 C 261.287030689963 328.6513130742652 261.41165703006556 328.7728044147968 261.43696299362597 328.92924128044285 C 261.4622689571863 329.0856781460889 261.382302389421 329.2402653981874 261.24 329.31 C 178.41 368.44 83.82 322.07 61.2 234.75 C 51.21 196.2 58.97 152.97 81.61 120.32 Q 91.73 105.73 106.42 92.42 C 112.47 86.93 117.15 85.88 125.53 87.54 C 165.2 95.38 196.93 122.58 220.44 154.8 C 220.66926060413365 155.1165100046455 220.61704148352177 155.5560209364621 220.32 155.81 L 191.93 180.24 C 191.77808753228146 180.3716108133969 191.70671895244155 180.5731104237048 191.7413359966559 180.77266750211703 C 191.77595304087026 180.97222458052926 191.91162990611562 181.1414433213821 192.1 181.22 L 274.99 214.05 C 275.1815669294884 214.126912984565 275.39827869105187 214.10825809265052 275.5738832819255 213.9997384016612 C 275.7494878727991 213.89121871067192 275.86310491797155 213.7057378231428 275.88 213.5 L 284.9 101.53 Z" stroke-linecap="round" />
</g>
</svg>