<?xml version="1.0" encoding="UTF-8" standalone="no" ?>
<!DOCTYPE svg PUBLIC "-//W3C//DTD SVG 1.1//EN" "http://www.w3.org/Graphics/SVG/1.1/DTD/svg11.dtd">
<svg xmlns="http://www.w3.org/2000/svg" xmlns:xlink="http://www.w3.org/1999/xlink" version="1.1" width="640" height="640" viewBox="0 0 640 640" xml:space="preserve">
<desc>Created with Fabric.js 5.3.0</desc>
<defs>
</defs>
<g transform="matrix(1.3866454978 0 0 1.3866454978 320 320)" id="3ECX-Dw0a2YvMeJz1mNST"  >
<path style="stroke: rgb(64,190,196); stroke-width: 0; stroke-dasharray: none; stroke-linecap: butt; stroke-dashoffset: 0; stroke-linejoin: miter; stroke-miterlimit: 4; fill: rgb(0,0,0); fill-rule: nonzero; opacity: 1;"  transform=" translate(0, 0)" d="M 0 -227.23404 C 125.43319 -227.23404 227.23404 -125.43319 227.23404 0 C 227.23404 125.43319 125.43319 227.23404 0 227.23404 C -125.43319 227.23404 -227.23404 125.43319 -227.23404 0 C -227.23404 -125.43319 -125.43319 -227.23404 0 -227.23404 z" stroke-linecap="round" />
</g>
<g transform="matrix(0.7323865086 0 0 0.7323865086 320 320)" id="EZb8S5rEMAhNvacRSuwJM"  >
<path style="stroke: rgb(64,190,196); stroke-width: 0; stroke-dasharray: none; stroke-linecap: butt; stroke-dashoffset: 0; stroke-linejoin: miter; stroke-miterlimit: 4; fill: rgb(255,243,18); fill-rule: nonzero; opacity: 1;"  transform=" translate(0, 0)" d="M 0 -227.23404 C 125.43319 -227.23404 227.23404 -125.43319 227.23404 0 C 227.23404 125.43319 125.43319 227.23404 0 227.23404 C -125.43319 227.23404 -227.23404 125.43319 -227.23404 0 C -227.23404 -125.43319 -125.43319 -227.23404 0 -227.23404 z" stroke-linecap="round" />
</g>
</svg>