<?xml version="1.0" encoding="UTF-8" standalone="no" ?>
<!DOCTYPE svg PUBLIC "-//W3C//DTD SVG 1.1//EN" "http://www.w3.org/Graphics/SVG/1.1/DTD/svg11.dtd">
<svg xmlns="http://www.w3.org/2000/svg" xmlns:xlink="http://www.w3.org/1999/xlink" version="1.1" width="2500" height="1387" viewBox="0 0 2500 1387" xml:space="preserve">
<desc>Created with Fabric.js 5.3.0</desc>
<defs>
</defs>
<g transform="matrix(1 0 0 1 1250.00000625 693.01173)" id="N4hZk92YC0MmKIwIgs9zP"  >
<path style="stroke: none; stroke-width: 1; stroke-dasharray: none; stroke-linecap: butt; stroke-dashoffset: 0; stroke-linejoin: miter; stroke-miterlimit: 4; fill: rgb(255,255,255); fill-rule: nonzero; opacity: 1;"  transform=" translate(-1250.00000625, -692.871105)" d="M 1801.75782 1265.625 L 1792.96876 1249.02344 L 1792.96161 1249.00936 L 1792.96875 1249.0234600000001 L 1801.75781 1265.6250200000002 C 1825.19531 1306.64064 1860.35156 1340.8203300000002 1903.32031 1361.3281500000003 C 1889.6484400000002 1368.1640900000002 1874.0234400000002 1374.0234600000003 1859.375 1377.9297100000003 C 1840.82031 1382.8125200000004 1820.3125 1385.7422100000003 1799.80469 1385.7422100000003 L 1481.44531 1385.7422100000003 C 1393.55468 1384.7656500000003 1317.38281 1336.9140900000004 1277.34375 1265.6250200000004 L 1268.55469 1249.0234600000003 L 859.1326399999999 437.00305000000037 L 627.92968 894.5312700000004 L 444.33592999999996 1255.8594000000003 L 439.45311999999996 1265.6250200000002 C 399.41405999999995 1336.9140900000002 323.24218999999994 1385.7422100000001 235.35155999999995 1385.7422100000001 C 235.18688999999995 1385.7422100000001 235.02225999999996 1385.74204 234.85766999999996 1385.7417 C 234.69681999999995 1385.74203 234.53591999999995 1385.74219 234.37499999999994 1385.74219 L 234.37499999999994 1385.7422 C 104.49218999999994 1385.7422 -5.684341886080802e-14 1281.25001 -5.684341886080802e-14 1152.34376 C -5.684341886080802e-14 1118.16408 6.835939999999943 1086.91408 19.531249999999943 1057.6172 L 31.249999999999943 1035.15626 L 487.30468999999994 136.71875999999997 L 495.11718999999994 120.11719999999997 C 518.5546899999999 79.10156999999997 553.7109399999999 45.89844999999997 596.6796899999999 24.414069999999967 C 596.6796899999999 24.414069999999967 596.6796899999999 24.414069999999967 596.6796999999999 24.414069999999967 C 610.3515799999999 17.578129999999966 625.97656 11.718759999999968 640.6249999999999 7.812509999999968 C 659.1796899999999 2.9296999999999676 679.6874999999999 0.000009999999967647 699.2187499999999 0.000009999999967647 L 1019.5312499999999 0.000009999999967647 C 1107.4218799999999 0.9765699999999676 1183.59375 48.82813999999997 1223.6328099999998 120.11719999999997 L 1230.4687499999998 136.71875999999997 L 1640.8669899999998 948.74189 L 1873.0468799999999 491.21093 L 2056.64063 129.88281 L 2061.52344 120.11718 C 2100.58594 48.82812 2177.73438 -0.000009999999988963282 2265.625 -0.000009999999988963282 L 2265.62501 0.00001000000001103672 C 2395.5078200000003 0.00001000000001103672 2500.00001 104.49220000000001 2500.00001 234.37501 C 2500.00001 268.55469 2493.1640700000003 299.8047 2480.46876 329.10157000000004 L 2469.7265700000003 350.58594000000005 L 2013.6718800000003 1249.02344 L 2004.8828200000003 1265.625 C 1981.4453200000003 1306.64062 1946.2890700000003 1339.84375 1903.3203200000003 1361.32812 C 1860.3515700000003 1340.8202999999999 1825.1953200000003 1306.64061 1801.7578200000003 1265.6249899999998 z" stroke-linecap="round" />
</g>
</svg>