<?xml version="1.0" encoding="UTF-8" standalone="no" ?>
<!DOCTYPE svg PUBLIC "-//W3C//DTD SVG 1.1//EN" "http://www.w3.org/Graphics/SVG/1.1/DTD/svg11.dtd">
<svg xmlns="http://www.w3.org/2000/svg" xmlns:xlink="http://www.w3.org/1999/xlink" version="1.1" width="640" height="640" viewBox="0 0 640 640" xml:space="preserve">
<desc>Created with Fabric.js 5.3.0</desc>
<defs>
</defs>
<g transform="matrix(1 0 0 1 319.9999948108 320.0000111107)" id="teQ28JZpuWz_yxbn75ozc"  >
<path style="stroke: none; stroke-width: 1; stroke-dasharray: none; stroke-linecap: butt; stroke-dashoffset: 0; stroke-linejoin: miter; stroke-miterlimit: 4; fill: rgb(255,255,255); fill-rule: nonzero; opacity: 1;"  transform=" translate(-256.6145583743, -78.0806441088)" d="M 103.33913 117.77116 C 103.33913 129.02858 98.14359 138.26636 87.75529999999999 145.19249 C 77.65075999999999 152.12127999999998 63.79458999999999 155.58525 45.89631999999999 155.58525 C 36.081259999999986 155.58525 27.13492999999999 154.71709 19.338539999999988 152.9851 C 11.258129999999987 150.96713 4.907599999999988 148.94734 -1.0658141036401503e-14 146.92336 L -1.0658141036401503e-14 117.77116000000001 L 3.1744899999999894 117.77116000000001 C 5.19902999999999 118.92433000000001 7.21769999999999 120.37103 9.52668999999999 121.81074000000001 C 11.83637999999999 123.25744000000002 15.01030999999999 124.98859000000002 19.33852999999999 126.72002 C 22.804599999999994 128.16365000000002 27.13491999999999 129.31625 31.754709999999992 130.47375 C 36.374509999999994 131.62859 41.280849999999994 132.20517999999998 46.765029999999996 132.20517999999998 C 53.69143999999999 132.20517999999998 58.59764 131.34079 62.06133 129.89506999999998 C 65.52223 128.16364 66.96893 125.85506999999997 66.96893 122.96949999999998 C 66.96893 120.37102999999998 66.10231 118.34983999999999 64.08112 117.19387999999998 C 62.06133 116.03791999999999 58.309689999999996 114.88474999999998 52.826209999999996 113.73297999999998 C 50.22494999999999 113.15429999999998 46.765029999999996 112.28627999999998 42.435129999999994 111.71039999999998 C 37.81477999999999 111.13451999999998 33.772119999999994 110.26649999999998 30.020629999999993 109.11192999999997 C 20.206689999999995 106.51345999999997 12.700199999999992 102.47387999999998 7.793169999999993 96.98899999999998 C 2.8866899999999927 91.50411999999997 0.5799399999999926 84.57812999999997 0.5799399999999926 76.49477999999998 C 0.5799399999999926 65.81435999999998 5.487959999999992 56.86577999999997 15.587459999999993 49.93839999999997 C 25.68905999999999 42.721669999999975 39.25630999999999 39.255179999999974 56.86579999999999 39.255179999999974 C 64.94775 39.255179999999974 73.02830999999999 40.12459999999997 80.53716999999999 41.85364999999997 C 88.03903999999999 43.58828999999997 93.81465999999999 45.32153999999997 98.14357999999999 47.339929999999974 L 98.14357999999999 75.05087999999998 L 95.25716999999999 75.05087999999998 C 90.06163 71.58718999999998 83.99667 68.70076999999998 77.36001999999999 66.39164999999997 C 70.43543 64.08251999999997 63.79458999999999 62.92515999999997 56.86579999999999 62.92515999999997 C 51.09157999999999 62.92515999999997 46.474019999999996 63.79177999999997 42.43513999999999 65.23568999999998 C 38.68084999999999 66.67958999999998 36.66063999999999 68.98871999999997 36.66063999999999 71.87513999999997 C 36.66063999999999 74.47360999999998 37.52655999999999 76.49479999999997 39.256309999999985 77.93729999999998 C 40.989829999999984 79.38119999999998 45.320849999999986 80.82370999999998 51.67136999999998 81.97966999999998 C 55.41908999999998 82.84628999999998 59.17491999999998 83.42077999999998 63.50523999999998 84.28739999999999 C 67.54760999999998 84.86608 71.87652999999997 85.73129999999999 75.91610999999997 86.88587 C 85.15262999999997 89.195 92.08280999999997 92.94942999999999 96.41312999999997 98.14218 C 101.02858999999997 103.34052 103.33911999999997 109.97856 103.33911999999997 117.77118 z M 200.03601 83.42078 C 199.74807 75.91471 198.01902 70.43262999999999 194.55253 66.67958999999999 C 191.09023 62.92515999999999 185.60535 61.19610999999999 178.39002 61.19610999999999 L 177.23685 61.19610999999999 C 170.88395 61.19610999999999 165.68701000000001 62.92515999999999 161.65023 66.39164999999998 C 157.31572 69.85673999999999 154.72005 75.62676999999998 154.14416 83.42077999999998 z M 235.25442 103.915 L 154.43071 103.915 C 154.72005000000001 112.57563 158.18235 119.21508 164.24591 123.83613000000001 C 167.70960000000002 126.42957000000001 172.03992 128.45145000000002 177.23686 129.31626 C 181.27923 130.18274 185.8947 130.76212 190.8009 130.76212 C 198.30697 130.76212 205.52369000000002 129.31626 212.74042000000003 126.72003000000001 C 219.66781000000003 124.12128000000001 225.14989000000003 121.23767000000001 229.19227000000004 118.06052000000001 L 233.23325000000003 118.06052000000001 L 233.23325000000003 146.34735 C 225.14990000000003 149.52296 217.64803000000003 151.83195 210.4327 153.27614 C 203.50252 154.71711 195.70851000000002 155.58527 187.05067000000003 155.58527 C 183.58418000000003 155.58527 180.41122000000001 155.58527 177.23687 155.29747 C 159.91561000000002 153.85217 146.05943000000002 148.94736 136.24563 140.57607000000002 C 124.41064 130.76213 118.63782 116.61662000000001 118.63782 98.14219000000001 C 118.63782 79.95710000000001 124.1255 65.52364000000001 135.37761 54.84462000000001 C 145.77428 45.029420000000016 159.62626 39.836680000000015 177.23687 38.97006000000001 L 181.27924000000002 38.97006000000001 C 199.1708 38.97006000000001 212.74043 43.58832000000001 221.68900000000002 52.53410000000001 C 230.63897000000003 61.48407000000001 235.25443 74.76296 235.25443 91.79209 L 235.25443 103.91502 z M 310.30531 65.52363 C 304.24315 66.67958999999999 299.33555 69.566 295.58112 73.89632 C 290.96566 79.66914 288.65793 87.7497 288.65793 97.85284 C 288.65793 108.824 290.67632000000003 116.61661000000001 294.42936000000003 121.52280999999999 C 297.60092000000003 125.85507999999999 303.09139000000005 128.45146 310.30532000000005 128.73968 L 312.32511000000005 128.73968 C 315.50226000000004 128.73968 318.9631600000001 128.16366 322.42825000000005 127.00824999999999 C 326.17989000000006 125.85507999999999 329.35704000000004 124.12127999999998 331.95411000000007 122.10288999999999 L 331.95411000000007 68.1249 C 329.63939000000005 66.96894 326.7585700000001 66.39166 324.15870000000007 65.81437 C 321.27369000000004 65.23568999999999 318.9631600000001 65.23568999999999 316.6540300000001 65.23568999999999 C 314.3477000000001 65.23568999999999 312.3251100000001 65.23568999999999 310.3053200000001 65.52363 z M 310.30531 153.85215 C 306.26433000000003 155.00923 301.64468 155.58525 296.45054000000005 155.58525 C 283.16746000000006 155.58525 272.48843000000005 150.39111 264.40648000000004 140.28657 C 256.32593 129.89507 252.28355000000005 115.75137000000001 252.28355000000005 98.43011000000001 C 252.28355000000005 88.90565000000001 253.72745000000006 80.82370000000002 256.32592000000005 73.31903000000001 C 258.92579000000006 66.10230000000001 262.67742000000004 60.03874000000001 267.58502000000004 54.844600000000014 C 271.91394 49.938400000000016 277.39602 46.186760000000014 283.74613000000005 43.29756000000001 C 290.1004300000001 40.70189000000001 296.4505300000001 39.25519000000001 302.79784000000006 39.25519000000001 C 305.3977100000001 39.25519000000001 307.99338000000006 39.54593000000001 310.3053100000001 39.83667000000001 C 313.76621000000006 40.12461000000001 316.65402000000006 40.70189000000001 318.9631500000001 41.568520000000014 C 323.2948600000001 42.72169000000002 327.6223800000001 44.74008000000001 331.9541000000001 46.76266000000001 L 331.9541000000001 1.4210854715202004e-14 L 367.4576600000001 1.4210854715202004e-14 L 367.4576600000001 152.69745 L 331.9541000000001 152.69745 L 331.9541000000001 141.1532 C 325.8919400000001 146.05954 320.1177200000001 149.81396999999998 314.9235700000001 152.12128 z M 452.89823 63.50384 C 449.72527 63.50384 446.54812000000004 64.08252 443.95385 64.94774 C 441.35537999999997 65.81436 438.75831 67.83415 436.44638 70.43262 C 434.13725 73.02829 432.40261 76.49478 431.25363999999996 80.8237 C 429.80413999999996 85.44196000000001 429.22965999999997 90.92544000000001 429.22965999999997 97.85283 C 429.22965999999997 103.91499 429.80415 109.11193 430.9643 113.44225 C 432.12165999999996 117.77117 433.55996999999996 121.23766 435.8705 124.12127 C 437.88889 126.72001999999999 440.48876 128.45145 443.37657 129.60671 C 446.26298 130.76210999999998 449.43594 131.34079 452.89823 131.34079 C 456.36472000000003 131.34079 459.53768 130.76211 462.13614 129.89507 C 465.02395 128.73967000000002 467.62102 127.00824 469.64361 124.40921 C 471.95134 121.5228 473.68598000000003 118.0605 474.83775 114.30607 C 475.99511 110.26649 476.57099000000005 104.78161 476.57099000000005 97.85283000000001 C 476.57099000000005 91.21618000000001 475.99511000000007 85.7313 474.83775 81.40098 C 473.68598000000003 77.07206000000001 471.95134 73.60977 469.92875000000004 71.0113 C 467.62102000000004 68.12489000000001 465.31189000000006 66.39164000000001 462.13614 65.23568 C 459.53767 64.08251 456.36471 63.50383 452.89823 63.50383 z M 452.89823 156.16128 C 433.85071 156.16128 419.12931000000003 150.96714 408.44889 140.28658000000001 C 398.05921 129.89508 392.57293 115.75138000000001 392.57293 97.56490000000002 C 392.57293 79.38121000000002 398.05921 64.94775000000001 408.44889 54.55527000000002 C 419.12931000000003 44.16419000000002 434.13725 38.97005000000002 452.89823 38.97005000000002 C 471.95134 38.97005000000002 486.96068 44.16419000000002 497.35316 54.55527000000002 C 507.74704 65.23569000000002 513.22912 79.38120000000002 513.22912 97.56490000000002 C 513.22912 115.75139000000001 507.74703999999997 129.89508 497.35315999999995 140.28658000000001 C 492.30492999999996 145.33619000000002 486.3521999999999 149.15945000000002 479.4651099999999 151.78724000000003 C 471.78514999999993 154.71755000000002 462.94330999999994 156.16129000000004 452.8982299999999 156.16129000000004 z" stroke-linecap="round" />
</g>
<g transform="matrix(1 0 0 1 477.4468085106 332.7659574468)" id="rywXmpFuGYz8c48KuGy_G"  >
<path style="stroke: rgb(0,0,0); stroke-width: 1; stroke-dasharray: none; stroke-linecap: round; stroke-dashoffset: 0; stroke-linejoin: round; stroke-miterlimit: 10; fill: none; fill-rule: nonzero; opacity: 1;"  transform=" translate(-477.4468085106, -332.7659574468)" d="M 477.4458085106383 332.7659574468085 L 477.44780851063825 332.7659574468085" stroke-linecap="round" />
</g>
</svg>